<svg width="236" height="57" viewBox="0 0 236 57" fill="none" xmlns="http://www.w3.org/2000/svg">
<g clip-path="url(#clip0_7_3139)">
<path d="M230.048 23.4863C229.418 36.1873 224.532 42.8764 217.983 48.0752C215.057 50.3994 210.919 50.6883 207.194 51.3306C202.528 52.1376 197.821 51.9529 193.13 52.1065C182.692 52.4482 172.259 52.7665 161.815 52.6953C153.845 52.642 145.883 53.1189 137.894 52.8849C129.01 52.624 120.099 53.0163 111.195 53.4367C103.286 53.8097 95.3622 53.7837 87.4446 53.7377C79.4645 53.6908 71.4745 54.1418 63.4919 54.0841C54.0151 54.0127 44.5866 55.0471 35.1293 55.4219C29.1096 55.6599 23.1012 56.2872 17.0834 56.6234C12.6331 56.8695 8.39363 56.4146 5.1981 52.4153C3.34712 50.0998 3.7036 47.3312 3.50232 44.7117C2.82515 35.8949 3.54111 27.161 5.70372 18.5891C7.47372 11.5733 11.4767 6.44945 17.5928 3.23781C19.7588 2.10024 22.1515 2.03816 24.4127 2.13047C32.9699 2.47563 41.5378 2.21898 50.0768 1.91364C61.562 1.50449 72.9392 2.606 84.3646 3.01753C94.164 3.37138 103.984 3.02375 113.799 2.6195C121.997 2.28383 130.2 2.2533 138.398 1.95593C148.493 1.59199 158.585 1.91178 168.682 1.5457C180.063 1.13266 191.371 2.24598 202.634 3.81036C207.873 4.53763 213.16 4.15041 218.416 4.49149C220.082 4.59984 221.491 4.89784 221.958 6.92069C222.016 7.17834 222.241 7.44664 222.456 7.59471C229.107 12.1555 230.149 19.2134 230.048 23.4863Z" fill="#FFEA7F"/>
<path d="M67.9894 5.43358C73.7246 5.92609 79.4989 6.09023 85.2321 6.09481C93.4708 6.10156 101.725 5.84876 109.973 5.44371C117.666 5.06595 125.369 4.60398 133.082 5.06935C137.333 5.3242 141.612 5.13156 145.879 5.14137C146.142 5.57977 146.425 5.57608 146.722 5.17049C159.219 5.63114 171.714 6.15982 184.202 6.80389C188.757 7.03871 193.326 7.18955 197.873 7.53143C203.564 7.95859 209.34 8.09775 214.882 7.12263C219.975 6.22423 222.142 9.85943 224.904 12.4684C228.598 15.9594 229.547 21.0283 229.853 26.1684C229.922 27.3654 229.95 28.563 230.003 29.7623C230.52 40.7782 222.284 47.932 213.935 50.1076C211.488 50.7469 208.942 49.8403 206.382 50.1463C198.092 51.1438 189.768 51.8315 181.469 52.759C175.803 53.3941 170.132 53.547 164.455 53.5703C154.145 53.6127 143.832 53.6 133.52 53.5873C130.924 53.5858 128.321 53.524 125.732 53.4322C116.604 53.112 107.48 52.5852 98.3566 52.0537C87.4217 51.4179 76.4928 51.434 65.5368 51.8283C55.5121 52.1901 45.523 53.084 35.5181 53.7472C26.7615 54.3311 17.9819 54.2857 9.23229 53.4139C6.76217 53.1679 5.52286 51.6207 4.78189 49.3189C3.01236 43.8338 2.9227 38.1066 3.08412 32.4128C3.24727 26.5542 3.69591 20.6849 4.67958 14.8909C5.67382 9.04268 9.51044 5.98012 14.4263 4.43896C18.4056 3.19191 22.5506 2.65613 26.7234 2.95086C35.5647 3.56979 44.4117 4.12577 53.2455 4.85057C57.8755 5.23059 62.5137 5.12221 67.1407 5.40399C67.4074 5.8427 67.6887 5.84488 67.9894 5.43358Z" fill="#FFEA7F"/>
<path d="M168.462 50.1003C158.592 49.9698 148.725 49.8502 138.855 49.7065C137.591 49.6879 136.331 49.5667 135.072 49.491C134.812 49.0456 134.531 49.0399 134.23 49.4512C123.542 48.986 112.854 48.5196 102.166 48.0532C101.904 47.6183 101.622 47.6125 101.325 48.0169C92.5621 47.4705 83.8172 48.1103 75.0635 48.7016C70.3066 49.019 65.5376 49.0523 60.7714 49.1874C52.5058 49.4166 44.243 49.6234 35.9804 49.9509C29.0479 50.2288 22.0887 50.6148 15.1648 49.9285C13.088 49.725 11.0049 49.2198 9.02227 48.5269C4.12552 46.8175 1.18922 41.9878 1.40015 36.4136C1.71157 28.1218 4.29665 20.7936 9.75231 14.779C13.567 10.5706 18.5338 8.55132 23.6835 7.12851C32.6855 4.64205 41.8356 3.17526 51.1117 2.65002C57.0064 2.31584 62.8783 2.42718 68.77 2.52677C80.277 2.71817 91.7676 3.1236 103.26 3.61641C105.208 3.69949 107.185 3.61604 109.146 3.70126C109.406 4.14188 109.687 4.14881 109.989 3.7364C113.93 3.87591 117.867 4.0163 121.808 4.15938C122.202 4.71001 122.621 4.73638 123.072 4.22463C134.862 5.07107 146.652 5.9176 158.442 6.76405C158.688 7.20847 158.968 7.23443 159.284 6.83503C165.592 7.43062 171.895 8.02351 178.201 8.62021C178.712 9.25934 179.273 9.29699 179.883 8.7644C182.596 9.11496 185.33 9.34506 188.043 9.59404C194.541 10.1973 201.072 10.5781 207.598 10.5975C211.892 10.6092 216.135 10.6387 220.328 11.6499C222.746 12.2316 224.683 13.5167 226.203 15.6495C230.806 22.1095 232.614 29.1767 230.346 37.197C230.185 37.7677 229.982 38.3522 229.681 38.8508C226.792 43.5856 222.56 46.7454 218.163 49.5779C216.087 50.9167 213.456 50.5134 211.138 50.3441C202.301 49.7087 193.488 50.2671 184.666 50.7279C182.782 50.8264 180.883 50.4575 178.986 50.3876C175.761 50.2682 172.536 50.211 169.309 50.1298C169.042 49.6946 168.761 49.6889 168.462 50.1003Z" fill="#FFEA7F"/>
</g>
<defs>
<clipPath id="clip0_7_3139">
<rect width="236" height="57" fill="white"/>
</clipPath>
</defs>
</svg>
