<svg width="24" height="24" viewBox="0 0 24 24" fill="none" xmlns="http://www.w3.org/2000/svg">
<path fill-rule="evenodd" clip-rule="evenodd" d="M12.0179 14.9377C11.7259 14.9377 11.4279 14.9827 11.1759 15.0807C11.026 15.1364 10.8876 15.2195 10.7679 15.3257C10.6725 15.4106 10.5959 15.5145 10.5431 15.6307C10.4902 15.747 10.4622 15.873 10.4609 16.0007C10.4609 16.3257 10.6339 16.5527 10.7679 16.6747C10.9009 16.7977 11.0529 16.8727 11.1759 16.9207C11.4289 17.0187 11.7259 17.0627 12.0179 17.0627C12.3079 17.0627 12.6059 17.0187 12.8579 16.9207C12.9829 16.8727 13.1339 16.7977 13.2679 16.6747C13.3631 16.5898 13.4394 16.4861 13.4921 16.37C13.5448 16.2539 13.5727 16.1281 13.5739 16.0007C13.5727 15.873 13.5448 15.7469 13.4919 15.6307C13.439 15.5144 13.3624 15.4105 13.2669 15.3257C13.1472 15.2195 13.0089 15.1364 12.8589 15.0807C12.5895 14.9827 12.3046 14.9342 12.0179 14.9377Z" fill="#8F7000"/>
<path d="M14.0364 12.6465C14.2004 12.3805 14.5264 12.0625 15.0164 12.0625C15.5044 12.0625 15.8304 12.3805 15.9954 12.6465C16.1674 12.9245 16.2494 13.2615 16.2494 13.5945C16.2494 13.9265 16.1674 14.2645 15.9954 14.5415C15.8304 14.8075 15.5054 15.1255 15.0154 15.1255C14.5264 15.1255 14.2004 14.8075 14.0354 14.5415C13.8653 14.2552 13.7774 13.9275 13.7814 13.5945C13.7814 13.2615 13.8634 12.9245 14.0364 12.6465ZM9.01539 12.0635C8.52739 12.0635 8.20139 12.3805 8.03539 12.6465C7.86508 12.9331 7.77719 13.2611 7.78139 13.5945C7.78139 13.9265 7.86339 14.2645 8.03639 14.5415C8.20139 14.8075 8.52639 15.1255 9.01639 15.1255C9.50439 15.1255 9.83039 14.8075 9.99639 14.5415C10.1674 14.2635 10.2494 13.9265 10.2494 13.5945C10.2494 13.2615 10.1674 12.9245 9.99539 12.6465C9.83039 12.3805 9.50539 12.0635 9.01539 12.0635Z" fill="#8F7000"/>
<path fill-rule="evenodd" clip-rule="evenodd" d="M6.09423 4.25C5.48023 4.25 4.77423 4.429 4.20823 4.916C3.62123 5.421 3.26923 6.188 3.26923 7.187V9.065C3.27023 9.359 3.32023 9.948 3.48823 10.439C3.54323 10.6 3.63023 10.813 3.77723 11.006C3.5156 11.5403 3.35298 12.1177 3.29723 12.71C3.24623 13.177 3.24523 13.668 3.25323 14.121C2.59323 14.351 1.90823 14.635 1.59323 14.839C1.43157 14.9492 1.31937 15.1182 1.28054 15.3099C1.24172 15.5017 1.27936 15.701 1.38543 15.8654C1.4915 16.0298 1.6576 16.1462 1.84831 16.1898C2.03901 16.2335 2.23922 16.2009 2.40623 16.099C2.52223 16.024 2.86623 15.866 3.31823 15.694C3.38723 16.173 3.52623 16.609 3.72123 17.006C3.54765 17.1145 3.37563 17.2255 3.20523 17.339C3.1225 17.3924 3.05111 17.4617 2.99513 17.5427C2.93914 17.6237 2.89967 17.715 2.87896 17.8113C2.85826 17.9076 2.85672 18.007 2.87444 18.1039C2.89216 18.2008 2.92879 18.2933 2.98223 18.376C3.03568 18.4587 3.1049 18.5301 3.18594 18.5861C3.26698 18.6421 3.35826 18.6816 3.45455 18.7023C3.55084 18.723 3.65027 18.7245 3.74716 18.7068C3.84405 18.6891 3.9365 18.6524 4.01923 18.599L4.15023 18.513C4.28123 18.428 4.43223 18.329 4.59623 18.229C5.18623 18.831 5.91823 19.296 6.67823 19.646C8.45923 20.466 10.5682 20.75 11.9992 20.75C13.4302 20.75 15.5392 20.465 17.3202 19.646C18.0802 19.296 18.8132 18.831 19.4022 18.229C19.5662 18.329 19.7172 18.428 19.8482 18.513L19.9792 18.599C20.1463 18.7069 20.3494 18.7441 20.5439 18.7023C20.7384 18.6604 20.9083 18.5431 21.0162 18.376C21.1242 18.2089 21.1613 18.0058 21.1195 17.8113C21.0777 17.6168 20.9603 17.4469 20.7932 17.339L20.6802 17.265C20.5702 17.193 20.4332 17.103 20.2772 17.006C20.4722 16.61 20.6122 16.173 20.6812 15.694C21.1332 15.866 21.4762 16.024 21.5932 16.099C21.7602 16.2009 21.9605 16.2335 22.1512 16.1898C22.3419 16.1462 22.508 16.0298 22.614 15.8654C22.7201 15.701 22.7577 15.5017 22.7189 15.3099C22.6801 15.1182 22.5679 14.9492 22.4062 14.839C22.0912 14.635 21.4062 14.351 20.7452 14.121C20.76 13.6499 20.7453 13.1783 20.7012 12.709C20.6454 12.117 20.4828 11.54 20.2212 11.006C20.3682 10.813 20.4552 10.6 20.5112 10.439C20.6504 9.99405 20.7238 9.53117 20.7292 9.065V7.188C20.7292 6.188 20.3772 5.422 19.7902 4.916C19.2252 4.429 18.5182 4.25 17.9042 4.25C17.4962 4.25 17.0742 4.407 16.7332 4.56C16.365 4.73312 16.0053 4.92367 15.6552 5.131L15.4422 5.254L15.4402 5.255C15.1762 5.408 14.9422 5.545 14.7332 5.652C14.6339 5.70424 14.5317 5.75098 14.4272 5.792C14.4069 5.79963 14.3862 5.8063 14.3652 5.812C14.1483 5.80964 13.9318 5.79227 13.7172 5.76L13.5552 5.74C13.039 5.67799 12.5192 5.64993 11.9992 5.656C11.2272 5.656 10.7892 5.697 10.4432 5.74L10.2812 5.76C10.0667 5.79227 9.85018 5.80964 9.63323 5.812C9.61227 5.80629 9.59158 5.79962 9.57123 5.792C9.46663 5.75125 9.36446 5.70451 9.26523 5.652C9.02651 5.52519 8.79078 5.39282 8.55823 5.255L8.34323 5.131C7.99347 4.92404 7.63407 4.73382 7.26623 4.561C6.92523 4.407 6.50223 4.25 6.09423 4.25ZM6.16123 17.614C6.49523 17.866 6.88023 18.088 7.30523 18.284C8.83523 18.988 10.7172 19.25 11.9992 19.25C13.2812 19.25 15.1622 18.988 16.6932 18.284C17.1182 18.088 17.5032 17.866 17.8372 17.614C17.652 17.5819 17.4856 17.4815 17.3709 17.3325C17.2563 17.1836 17.2017 16.997 17.218 16.8098C17.2344 16.6225 17.3205 16.4482 17.4592 16.3214C17.598 16.1946 17.7793 16.1245 17.9672 16.125C18.2942 16.125 18.6292 16.207 18.9392 16.32C19.1026 15.9771 19.1987 15.6061 19.2222 15.227C19.023 15.1721 18.8185 15.1379 18.6122 15.125C18.4133 15.125 18.2226 15.046 18.0819 14.9053C17.9413 14.7647 17.8622 14.5739 17.8622 14.375C17.8622 14.1761 17.9413 13.9853 18.0819 13.8447C18.2226 13.704 18.4133 13.625 18.6122 13.625C18.8072 13.625 19.0272 13.655 19.2492 13.697C19.2492 13.421 19.2402 13.15 19.2102 12.872C19.1402 12.227 18.9572 11.654 18.5262 11.145C18.3525 10.9425 18.1555 10.7613 17.9392 10.605C17.7788 10.4872 17.6717 10.3106 17.6415 10.1138C17.6113 9.91712 17.6605 9.71646 17.7782 9.556C17.896 9.39554 18.0727 9.28844 18.2694 9.25824C18.4661 9.22805 18.6668 9.27724 18.8272 9.395C18.9472 9.483 19.0592 9.573 19.1652 9.665C19.2092 9.437 19.2292 9.198 19.2292 9.061V7.188C19.2292 6.562 19.0232 6.235 18.8112 6.053C18.5792 5.853 18.2492 5.75 17.9042 5.75C17.8342 5.75 17.6582 5.789 17.3502 5.928C17.0632 6.058 16.7422 6.236 16.4032 6.431C16.3389 6.46826 16.2745 6.50559 16.2102 6.543C15.9422 6.698 15.6652 6.859 15.4202 6.985C15.2652 7.065 15.1042 7.141 14.9492 7.199C14.772 7.26932 14.5838 7.30791 14.3932 7.313C14.0977 7.31188 13.8026 7.28949 13.5102 7.246L13.3732 7.229C12.9173 7.17437 12.4583 7.14999 11.9992 7.156C11.2912 7.156 10.9142 7.193 10.6262 7.229L10.4882 7.246C10.2382 7.279 9.97723 7.312 9.60523 7.312C9.39223 7.312 9.19323 7.252 9.05023 7.199C8.8888 7.13708 8.73119 7.06563 8.57824 6.985C8.33324 6.859 8.05623 6.698 7.78823 6.543L7.59523 6.431C7.25623 6.236 6.93523 6.057 6.64823 5.928C6.34023 5.788 6.16423 5.75 6.09423 5.75C5.75023 5.75 5.41923 5.853 5.18723 6.053C4.97523 6.235 4.76923 6.563 4.76923 7.188V9.06C4.76923 9.197 4.78923 9.436 4.83323 9.664C4.94023 9.572 5.05323 9.482 5.17123 9.394C5.25068 9.33569 5.34084 9.29361 5.43656 9.27014C5.53227 9.24668 5.63167 9.24229 5.72908 9.25725C5.82649 9.2722 5.92 9.30619 6.00427 9.35727C6.08854 9.40836 6.16193 9.47555 6.22023 9.555C6.27854 9.63445 6.32063 9.72461 6.34409 9.82032C6.36756 9.91604 6.37194 10.0154 6.35699 10.1128C6.34204 10.2103 6.30805 10.3038 6.25696 10.388C6.20587 10.4723 6.13868 10.5457 6.05923 10.604C5.81923 10.78 5.62623 10.961 5.47223 11.144C5.04223 11.654 4.85823 12.226 4.78823 12.871C4.75823 13.149 4.74823 13.421 4.74823 13.696C4.97123 13.653 5.19123 13.624 5.38623 13.624C5.58515 13.624 5.77591 13.703 5.91656 13.8437C6.05722 13.9843 6.13623 14.1751 6.13623 14.374C6.13623 14.5729 6.05722 14.7637 5.91656 14.9043C5.77591 15.045 5.58515 15.124 5.38623 15.124C5.28023 15.124 5.07423 15.154 4.77623 15.226C4.80323 15.624 4.90123 15.987 5.05923 16.319C5.36953 16.1983 5.6984 16.1323 6.03123 16.124C6.21921 16.1235 6.40051 16.1936 6.53926 16.3204C6.67801 16.4472 6.76408 16.6215 6.78043 16.8088C6.79678 16.996 6.74221 17.1826 6.62754 17.3315C6.51287 17.4805 6.34645 17.5819 6.16123 17.614Z" fill="#8F7000"/>
</svg>
