<svg width="32" height="32" viewBox="0 0 32 32" fill="none" xmlns="http://www.w3.org/2000/svg">
<path d="M24.1986 12.1913L23.7986 24.2983C23.7645 25.3352 23.3277 26.318 22.5809 27.0381C21.8341 27.7583 20.836 28.159 19.7986 28.1553H12.1986C11.1618 28.159 10.1643 27.7588 9.41761 27.0396C8.6709 26.3203 8.23365 25.3385 8.19856 24.3023L7.79856 12.1913C7.78981 11.9261 7.88677 11.6683 8.06812 11.4746C8.24947 11.2808 8.50035 11.1671 8.76556 11.1583C9.03078 11.1496 9.28861 11.2465 9.48233 11.4279C9.67606 11.6092 9.78981 11.8601 9.79856 12.1253L10.1986 24.2353C10.2185 24.7523 10.438 25.2414 10.8109 25.6C11.1838 25.9586 11.6812 26.1587 12.1986 26.1583H19.7986C20.3166 26.1587 20.8145 25.958 21.1876 25.5986C21.5606 25.2392 21.7797 24.749 21.7986 24.2313L22.1986 12.1253C22.2073 11.8601 22.3211 11.6092 22.5148 11.4279C22.7085 11.2465 22.9663 11.1496 23.2316 11.1583C23.4968 11.1671 23.7477 11.2808 23.929 11.4746C24.1104 11.6683 24.2073 11.9261 24.1986 12.1913ZM25.5216 8.16232C25.5216 8.42754 25.4162 8.68189 25.2287 8.86943C25.0411 9.05697 24.7868 9.16232 24.5216 9.16232H7.47656C7.21135 9.16232 6.95699 9.05697 6.76946 8.86943C6.58192 8.68189 6.47656 8.42754 6.47656 8.16232C6.47656 7.89711 6.58192 7.64275 6.76946 7.45522C6.95699 7.26768 7.21135 7.16232 7.47656 7.16232H10.5766C10.8934 7.16318 11.1992 7.04611 11.4345 6.83392C11.6698 6.62172 11.8178 6.32957 11.8496 6.01432C11.9234 5.27481 12.2698 4.58925 12.8215 4.09123C13.3731 3.59321 14.0904 3.31839 14.8336 3.32032H17.1636C17.9067 3.31839 18.624 3.59321 19.1757 4.09123C19.7273 4.58925 20.0738 5.27481 20.1476 6.01432C20.1793 6.32957 20.3273 6.62172 20.5626 6.83392C20.7979 7.04611 21.1037 7.16318 21.4206 7.16232H24.5206C24.7858 7.16232 25.0401 7.26768 25.2277 7.45522C25.4152 7.64275 25.5206 7.89711 25.5206 8.16232H25.5216ZM13.5856 7.16232H18.4136C18.2822 6.86207 18.1962 6.54391 18.1586 6.21832C18.1338 5.97183 18.0184 5.74331 17.8348 5.57703C17.6511 5.41076 17.4123 5.31857 17.1646 5.31832H14.8346C14.5868 5.31857 14.348 5.41076 14.1644 5.57703C13.9807 5.74331 13.8653 5.97183 13.8406 6.21832C13.8026 6.54396 13.7173 6.86212 13.5856 7.16232ZM14.5926 22.3133V13.7983C14.5926 13.5331 14.4872 13.2788 14.2997 13.0912C14.1121 12.9037 13.8578 12.7983 13.5926 12.7983C13.3273 12.7983 13.073 12.9037 12.8855 13.0912C12.6979 13.2788 12.5926 13.5331 12.5926 13.7983V22.3173C12.5926 22.5825 12.6979 22.8369 12.8855 23.0244C13.073 23.212 13.3273 23.3173 13.5926 23.3173C13.8578 23.3173 14.1121 23.212 14.2997 23.0244C14.4872 22.8369 14.5926 22.5825 14.5926 22.3173V22.3133ZM19.4066 22.3133V13.7983C19.4066 13.5331 19.3012 13.2788 19.1137 13.0912C18.9261 12.9037 18.6718 12.7983 18.4066 12.7983C18.1413 12.7983 17.887 12.9037 17.6995 13.0912C17.5119 13.2788 17.4066 13.5331 17.4066 13.7983V22.3173C17.4066 22.5825 17.5119 22.8369 17.6995 23.0244C17.887 23.212 18.1413 23.3173 18.4066 23.3173C18.6718 23.3173 18.9261 23.212 19.1137 23.0244C19.3012 22.8369 19.4066 22.5825 19.4066 22.3173V22.3133Z" fill="#D85B53"/>
</svg>
