<svg width="16" height="16" viewBox="0 0 16 16" fill="none" xmlns="http://www.w3.org/2000/svg">
<g id="pin-02">
<g id="Icon">
<path d="M8.68362 2.82074C8.87698 2.36957 8.97366 2.14398 9.12989 2.04151C9.26651 1.9519 9.43298 1.91984 9.59311 1.9523C9.77622 1.98942 9.94977 2.16297 10.2969 2.51006L13.4856 5.69881C13.8327 6.0459 14.0062 6.21945 14.0434 6.40256C14.0758 6.56269 14.0438 6.72916 13.9542 6.86578C13.8517 7.02201 13.6261 7.11869 13.1749 7.31205L11.6284 7.97484C11.5628 8.00295 11.53 8.01701 11.4993 8.03458C11.4719 8.05019 11.4458 8.06786 11.4212 8.08744C11.3934 8.10947 11.3682 8.13471 11.3177 8.18518L10.35 9.15293C10.2711 9.23187 10.2316 9.27134 10.2002 9.31631C10.1724 9.35622 10.1493 9.39928 10.1316 9.44458C10.1115 9.49562 10.1006 9.55036 10.0787 9.65983L9.62431 11.9318C9.50623 12.5222 9.44718 12.8174 9.29153 12.9556C9.15593 13.0759 8.97446 13.1308 8.79489 13.1059C8.58877 13.0773 8.37589 12.8645 7.95013 12.4387L3.55697 8.04554C3.13121 7.61978 2.91832 7.4069 2.88975 7.20078C2.86485 7.02121 2.9198 6.83974 3.04012 6.70414C3.17823 6.54849 3.47344 6.48944 4.06387 6.37136L6.33584 5.91696C6.44531 5.89507 6.50005 5.88412 6.55109 5.8641C6.59639 5.84633 6.63945 5.82329 6.67936 5.79545C6.72433 5.76409 6.7638 5.72462 6.84274 5.64568L7.81049 4.67793C7.86096 4.62746 7.8862 4.60222 7.90823 4.57448C7.92781 4.54984 7.94548 4.52374 7.96109 4.49641C7.97866 4.46565 7.99272 4.43285 8.02083 4.36725L8.68362 2.82074Z" fill="#353535"/>
<path d="M5.75353 10.2421L2.24628 13.7494M7.81049 4.67793L6.84274 5.64568C6.7638 5.72462 6.72433 5.76409 6.67936 5.79545C6.63945 5.82329 6.59639 5.84633 6.55109 5.8641C6.50005 5.88412 6.44531 5.89507 6.33584 5.91696L4.06387 6.37136C3.47344 6.48944 3.17823 6.54849 3.04012 6.70414C2.9198 6.83974 2.86485 7.02121 2.88975 7.20078C2.91832 7.4069 3.13121 7.61978 3.55697 8.04554L7.95013 12.4387C8.37589 12.8645 8.58877 13.0773 8.79489 13.1059C8.97446 13.1308 9.15593 13.0759 9.29153 12.9556C9.44718 12.8174 9.50623 12.5222 9.62431 11.9318L10.0787 9.65983C10.1006 9.55036 10.1115 9.49562 10.1316 9.44458C10.1493 9.39928 10.1724 9.35622 10.2002 9.31631C10.2316 9.27134 10.2711 9.23187 10.35 9.15293L11.3177 8.18518C11.3682 8.13471 11.3934 8.10947 11.4212 8.08744C11.4458 8.06786 11.4719 8.05019 11.4993 8.03458C11.53 8.01701 11.5628 8.00295 11.6284 7.97484L13.1749 7.31205C13.6261 7.11869 13.8517 7.02201 13.9542 6.86578C14.0438 6.72916 14.0758 6.56269 14.0434 6.40256C14.0062 6.21945 13.8327 6.0459 13.4856 5.69881L10.2969 2.51006C9.94977 2.16297 9.77622 1.98942 9.59311 1.9523C9.43298 1.91984 9.26651 1.9519 9.12989 2.04151C8.97366 2.14398 8.87698 2.36957 8.68362 2.82074L8.02083 4.36725C7.99272 4.43285 7.97866 4.46565 7.96109 4.49641C7.94548 4.52374 7.92781 4.54984 7.90823 4.57448C7.8862 4.60222 7.86096 4.62746 7.81049 4.67793Z" stroke="#353535" stroke-width="0.93" stroke-linecap="round" stroke-linejoin="round"/>
</g>
</g>
</svg>
