<svg width="32" height="32" viewBox="0 0 32 32" fill="none" xmlns="http://www.w3.org/2000/svg">
<g clip-path="url(#clip0_157_458)">
<path d="M11.1675 20.8229L3.625 28.3654M15.5911 8.85689L13.5099 10.9381C13.3401 11.1078 13.2552 11.1927 13.1585 11.2602C13.0727 11.32 12.9801 11.3696 12.8827 11.4078C12.7729 11.4509 12.6552 11.4744 12.4198 11.5215L7.53381 12.4987C6.26407 12.7526 5.6292 12.8796 5.33219 13.2143C5.07343 13.5059 4.95527 13.8962 5.00881 14.2824C5.07026 14.7256 5.52807 15.1835 6.4437 16.0991L15.8913 25.5467C16.807 26.4623 17.2648 26.9202 17.708 26.9816C18.0942 27.0351 18.4845 26.917 18.7761 26.6582C19.1108 26.3612 19.2378 25.7263 19.4917 24.4566L20.4689 19.5707C20.516 19.3352 20.5396 19.2175 20.5826 19.1078C20.6208 19.0103 20.6704 18.9177 20.7302 18.8319C20.7977 18.7352 20.8826 18.6503 21.0523 18.4805L23.1335 16.3994C23.2421 16.2908 23.2963 16.2366 23.356 16.1892C23.409 16.1471 23.4651 16.1091 23.5239 16.0755C23.59 16.0377 23.6606 16.0075 23.8017 15.947L27.1275 14.5217C28.0977 14.1058 28.5829 13.8979 28.8032 13.5619C28.9959 13.2681 29.0649 12.9101 28.9951 12.5658C28.9153 12.172 28.542 11.7988 27.7956 11.0523L20.9381 4.19482C20.1917 3.44838 19.8184 3.07516 19.4246 2.99533C19.0803 2.92553 18.7223 2.99447 18.4285 3.18718C18.0925 3.40755 17.8846 3.89268 17.4687 4.86295L16.0434 8.18876C15.9829 8.32985 15.9527 8.40039 15.9149 8.46654C15.8813 8.52531 15.8433 8.58143 15.8012 8.63442C15.7539 8.69408 15.6996 8.74835 15.5911 8.85689Z" stroke="#353535" stroke-width="2.5" stroke-linecap="round" stroke-linejoin="round"/>
</g>
<defs>
<clipPath id="clip0_157_458">
<rect width="32" height="32" fill="white"/>
</clipPath>
</defs>
</svg>
