<svg width="14" height="14" viewBox="0 0 14 14" fill="none" xmlns="http://www.w3.org/2000/svg">
<path d="M4.50725 9.24211L1 12.7494M6.56422 3.67793L5.59647 4.64568C5.51753 4.72462 5.47805 4.76409 5.43308 4.79545C5.39317 4.82329 5.35011 4.84633 5.30481 4.8641C5.25377 4.88412 5.19903 4.89507 5.08956 4.91696L2.8176 5.37136C2.22717 5.48944 1.93195 5.54849 1.79384 5.70414C1.67352 5.83974 1.61858 6.02121 1.64347 6.20078C1.67205 6.4069 1.88493 6.61978 2.31069 7.04554L6.70385 11.4387C7.12961 11.8645 7.3425 12.0773 7.54862 12.1059C7.72819 12.1308 7.90965 12.0759 8.04526 11.9556C8.20091 11.8174 8.25995 11.5222 8.37804 10.9318L8.83243 8.65983C8.85432 8.55036 8.86527 8.49562 8.88529 8.44458C8.90306 8.39928 8.9261 8.35622 8.95394 8.31631C8.9853 8.27134 9.02477 8.23187 9.10372 8.15293L10.0715 7.18518C10.1219 7.13471 10.1472 7.10947 10.1749 7.08744C10.1996 7.06786 10.2257 7.05019 10.253 7.03458C10.2837 7.01701 10.3165 7.00295 10.3821 6.97484L11.9286 6.31205C12.3798 6.11869 12.6054 6.02201 12.7079 5.86578C12.7975 5.72916 12.8296 5.56269 12.7971 5.40256C12.76 5.21945 12.5864 5.0459 12.2393 4.69881L9.05059 1.51006C8.70349 1.16297 8.52995 0.989424 8.34683 0.952303C8.18671 0.919842 8.02024 0.951902 7.88361 1.04151C7.72738 1.14398 7.6307 1.36957 7.43734 1.82074L6.77456 3.36725C6.74644 3.43285 6.73238 3.46565 6.71481 3.49641C6.6992 3.52374 6.68153 3.54984 6.66196 3.57448C6.63992 3.60222 6.61469 3.62746 6.56422 3.67793Z" stroke="#353535" stroke-width="0.93" stroke-linecap="round" stroke-linejoin="round"/>
</svg>
